# Blender v3.0.1 OBJ File: 'starfox_ship.blend'
# www.blender.org
o Body_Cube
v 0.000000 0.323787 0.044563
v 0.445000 -0.010025 0.022427
v 0.400000 -0.010025 0.500000
v -0.388181 -0.004429 0.011113
v -0.400000 -0.010025 0.500000
v -0.400000 -0.010025 0.500000
v 0.400000 -0.010025 0.500000
v -0.075838 -0.008159 2.504480
v 0.075838 -0.008159 2.504480
v -0.075838 -0.008159 2.504480
v 0.075838 -0.008159 2.504480
v -0.001280 0.003539 3.152413
v 0.000000 0.323787 0.044563
v 0.001280 0.003539 3.152413
v 0.000000 0.165446 -0.310834
v 0.000000 0.153060 -0.285794
v 0.388181 -0.004429 0.011113
v -0.445000 -0.010025 0.022427
v -0.388181 -0.002865 0.128967
v 0.000000 0.119982 -0.055327
v 0.388181 -0.002865 0.128967
v -0.445000 -0.010025 0.022427
v -0.400000 -0.010025 0.500000
v 0.388181 -0.004429 0.011113
v 0.400000 -0.010025 0.500000
v 0.400000 -0.010025 0.500000
v -0.400000 -0.010025 0.500000
v 0.075838 -0.008159 2.504480
v -0.075838 -0.008159 2.504480
v 0.075838 -0.008159 2.504480
v -0.075838 -0.008159 2.504480
v 0.001280 0.003539 3.152413
v -0.001280 0.003539 3.152413
v -0.388181 -0.004429 0.011113
v 0.445000 -0.010025 0.022427
v 0.388181 -0.002865 0.128967
v -0.388181 -0.002865 0.128967
vn 0.0000 0.0000 1.0000
vn -0.6009 0.7973 0.0566
vn 0.0000 -1.0000 -0.0000
vn 0.6009 0.7973 0.0566
vn 0.0000 -1.0000 0.0009
vn 0.5741 0.8136 0.0921
vn -0.5741 0.8136 0.0921
vn 0.7219 0.6884 0.0706
vn 0.0000 0.9947 0.1025
vn -0.5537 0.7606 -0.3389
vn -0.7219 0.6884 0.0706
vn 0.0000 -0.9998 0.0181
vn 0.3071 -0.9516 0.0126
vn 0.0000 -0.8963 -0.4434
vn 0.0085 -0.8788 -0.4772
vn 0.0214 -0.8961 -0.4432
vn 0.0000 0.9999 -0.0133
vn -0.2811 -0.9499 -0.1363
vn 0.5537 0.7606 -0.3389
vn -0.0085 -0.8788 -0.4772
vn 0.2811 -0.9499 -0.1363
vn -0.0214 -0.8961 -0.4432
vn -0.3071 -0.9516 0.0126
vn 0.0000 -0.8321 -0.5547
s off
f 5//1 7//1 6//1
f 5//2 1//2 18//2
f 2//3 5//3 18//3
f 2//4 1//4 3//4
f 7//5 8//5 6//5
f 3//1 1//1 7//1
f 1//1 5//1 6//1
f 8//1 11//1 10//1
f 7//6 1//6 9//6
f 1//7 6//7 8//7
f 11//8 1//8 14//8
f 9//1 1//1 11//1
f 1//1 8//1 10//1
f 14//9 1//9 12//9
f 15//10 18//10 13//10
f 1//11 10//11 12//11
f 11//12 12//12 10//12
f 4//13 20//13 19//13
f 17//14 18//14 4//14
f 16//15 2//15 17//15
f 16//16 18//16 15//16
f 4//17 21//17 17//17
f 17//18 20//18 16//18
f 25//1 27//1 23//1
f 25//4 35//4 1//4
f 25//3 22//3 35//3
f 22//2 23//2 1//2
f 28//5 27//5 26//5
f 23//1 27//1 1//1
f 1//1 26//1 25//1
f 28//1 31//1 29//1
f 27//7 29//7 1//7
f 1//6 28//6 26//6
f 31//11 33//11 1//11
f 29//1 31//1 1//1
f 1//1 30//1 28//1
f 33//9 32//9 1//9
f 15//19 13//19 35//19
f 1//8 32//8 30//8
f 32//12 31//12 30//12
f 24//18 20//18 16//18
f 35//14 34//14 24//14
f 22//20 16//20 34//20
f 16//15 35//15 24//15
f 37//17 24//17 34//17
f 20//21 34//21 16//21
f 5//1 3//1 7//1
f 2//3 3//3 5//3
f 7//5 9//5 8//5
f 8//1 9//1 11//1
f 11//12 14//12 12//12
f 4//21 16//21 20//21
f 17//14 2//14 18//14
f 16//22 15//22 2//22
f 16//20 4//20 18//20
f 4//17 19//17 21//17
f 17//23 21//23 20//23
f 25//1 26//1 27//1
f 25//3 23//3 22//3
f 28//5 29//5 27//5
f 28//1 30//1 31//1
f 32//12 33//12 31//12
f 24//23 36//23 20//23
f 35//14 22//14 34//14
f 22//16 15//16 16//16
f 16//22 15//22 35//22
f 37//17 36//17 24//17
f 20//13 37//13 34//13
f 19//24 20//24 21//24
f 36//24 37//24 20//24
l 1 13
o Wings_Cube.001
v 0.581664 -0.000445 0.058232
v 1.609766 -0.075644 0.018834
v 1.293149 0.126374 -0.314032
v 3.192561 -0.372742 -2.243224
v 0.581664 -0.000445 0.058232
v 0.581664 -0.000445 0.058232
v -0.581664 -0.000445 0.058232
v -1.609766 -0.075644 0.018834
v -1.293149 0.126374 -0.314032
v -3.192560 -0.372742 -2.243224
v -0.581664 -0.000445 0.058232
v -0.581664 -0.000445 0.058232
vn -0.4341 0.6711 -0.6010
vn 0.4027 0.9006 0.1635
vn 0.0823 0.8848 0.4587
vn -0.0696 -0.9942 0.0819
vn 0.4341 0.6711 -0.6010
vn -0.4027 0.9006 0.1635
vn -0.0823 0.8848 0.4587
vn 0.0696 -0.9942 0.0819
s off
f 38//25 40//25 41//25
f 41//26 40//26 39//26
f 39//27 40//27 38//27
f 38//28 41//28 39//28
f 44//29 47//29 46//29
f 47//30 45//30 46//30
f 45//31 44//31 46//31
f 44//32 45//32 47//32
l 42 43
l 48 49
o Cube_Cube.003
v 0.502924 -0.246219 1.055017
v 0.735654 -0.022953 0.091844
v 0.427319 -0.007532 0.091844
v 1.020441 0.981040 -0.447273
v -0.502924 -0.246219 1.055017
v -0.735655 -0.022953 0.091844
v -0.427320 -0.007532 0.091844
v -1.020442 0.981040 -0.447273
vn -0.0485 -0.9704 -0.2367
vn -0.0234 -0.4678 -0.8835
vn 0.9662 -0.1698 0.1941
vn -0.7853 0.5837 0.2063
vn 0.0485 -0.9704 -0.2367
vn 0.0234 -0.4678 -0.8835
vn -0.9662 -0.1698 0.1941
vn 0.7853 0.5837 0.2063
s off
f 50//33 52//33 51//33
f 51//34 52//34 53//34
f 51//35 53//35 50//35
f 53//36 52//36 50//36
f 54//37 55//37 56//37
f 55//38 57//38 56//38
f 55//39 54//39 57//39
f 57//40 54//40 56//40
